<?xml version="1.0"?>
<svg version="1.1" xmlns="http://www.w3.org/2000/svg" width="400" height="200" style="border: dashed 2px #aaa"><path fill="#" d="M15.98,116.8l0-2.38l2.1-0.84l0-13.216l-2.1-0.84l0-2.324l8.54-0.14l0,2.464l-2.1,0.84l0,4.816l1.904,0l4.676-7.98l5.18-0.14l0,2.464l-2.66,0.784l-3.668,6.104l5.208,7.168l2.1,0.84l0,2.38l-8.54,0l0-2.38l1.68-0.84l-3.836-5.32l-2.044,0l0,5.32l2.1,0.84l0,2.38l-8.54,0z M47.88628,96.724c5.6,0,8.82,3.696,8.82,9.94c0,6.3-3.78,10.5-9.38,10.5s-8.68-3.5-8.68-10.08c0-6.44,3.556-10.36,9.24-10.36z M47.74628,100.224c-2.8,0-4.34,1.736-4.34,6.72c0,4.62,1.26,6.72,4.06,6.72s4.48-1.82,4.48-6.86c0-4.62-1.4-6.58-4.2-6.58z M61.17256,116.8l0-2.38l2.1-0.84l0-13.16l-2.1-0.84l0-2.38l6.72-0.14l7.56,12.936l0-9.576l-2.044-0.84l0-2.38l7.98-0.14l0,2.52l-2.1,0.84l0,16.38l-4.676,0l-7.504-12.684l0,9.464l2.184,0.84l0,2.38l-8.12,0z M98.93084,103.08l-0.7-2.408s-1.316-0.448-3.164-0.448c-2.996,0-4.676,2.184-4.676,6.86c0,4.536,1.764,6.496,4.76,6.496c1.456,0,3.08-0.504,3.08-0.504l0-3.528l-2.1-0.644l0-2.296l8.064-0.14l0,2.436l-1.904,0.644l0,5.712s-2.884,1.876-7.616,1.876c-5.684,0-8.96-3.416-8.96-9.912c0-6.58,3.696-10.5,9.436-10.5c3.388,0,6.524,1.316,6.524,1.316l-0.14,5.04l-2.604,0z M127.92512,114.42l0,2.38l-8.904,0l0-2.38l2.1-0.756l-0.672-2.044l-6.216,0l-0.7,2.016l2.184,0.784l0,2.38l-8.456,0l0-2.38l2.044-0.784l6.16-16.492l4.48-0.084l6.02,16.576z M119.52512,108.624l-2.1-6.636l-2.212,6.636l4.312,0z M133.2314,113.58l0-13.16l-2.1-0.84l0-2.38l6.44-0.14l2.66,0c5.6,0,8.904,3.304,8.904,9.604s-3.64,10.136-9.324,10.136l-8.68,0l0-2.38z M137.5714,113.44l2.324,0c2.716,0,4.536-1.596,4.536-6.636c0-4.704-1.596-6.384-4.34-6.384l-2.52,0l0,13.02z M168.35768,104.06l-1.736,0.364l-3.22,4.816l3.164,4.76l2.072,0.56l0,2.24l-7.616,0l0-2.24l0.868-0.308l-1.484-2.464l-3.024,5.012l-4.76,0l0-2.24l2.1-0.56l3.08-4.62l-3.388-4.956l-1.512-0.364l0-2.24l7.252-0.14l0,2.38l-0.84,0.168l1.456,2.464l2.912-4.872l4.676-0.14l0,2.38z"/><path fill="#" d=""/></svg>
